<?xml version="1.0" encoding="UTF-8" standalone="no"?>
<!-- Created with Inkscape (http://www.inkscape.org/) -->

<svg
   width="194.5838mm"
   height="112.17358mm"
   viewBox="0 0 194.5838 112.17358"
   version="1.1"
   id="svg1"
   xml:space="preserve"
   inkscape:version="1.4.3 (0d15f75, 2025-12-25)"
   sodipodi:docname="Лого для сайта.svg"
   inkscape:export-filename="Лого для сайта.svg"
   inkscape:export-xdpi="96"
   inkscape:export-ydpi="96"
   xmlns:inkscape="http://www.inkscape.org/namespaces/inkscape"
   xmlns:sodipodi="http://sodipodi.sourceforge.net/DTD/sodipodi-0.dtd"
   xmlns="http://www.w3.org/2000/svg"
   xmlns:svg="http://www.w3.org/2000/svg"><sodipodi:namedview
     id="namedview1"
     pagecolor="#ffffff"
     bordercolor="#000000"
     borderopacity="0.25"
     inkscape:showpageshadow="2"
     inkscape:pageopacity="0.0"
     inkscape:pagecheckerboard="0"
     inkscape:deskcolor="#d1d1d1"
     inkscape:document-units="mm"
     inkscape:zoom="0.44403153"
     inkscape:cx="1087.7606"
     inkscape:cy="-138.50368"
     inkscape:window-width="1440"
     inkscape:window-height="872"
     inkscape:window-x="0"
     inkscape:window-y="28"
     inkscape:window-maximized="0"
     inkscape:current-layer="g2"
     inkscape:antialias-rendering="true"><inkscape:page
       x="0"
       y="-1.1078188e-21"
       width="194.5838"
       height="112.17359"
       id="page2"
       margin="0"
       bleed="0" /></sodipodi:namedview><defs
     id="defs1" /><g
     inkscape:label="Слой 1"
     inkscape:groupmode="layer"
     id="layer1"
     style="opacity:1"
     transform="translate(-11.404085,-6.5389274)"><g
       style="fill:none"
       id="g2"
       transform="matrix(0.89052853,0,0,0.85136021,286.1754,78.196844)"><g
         id="g5"
         transform="translate(-3.2568821,-43.606024)"><path
           style="fill:#ffffff;fill-opacity:1;stroke-width:0.303866"
           d="m -112.91793,27.351726 6.79886,-3.32223 0.59552,0.5191 -22.38165,29.53673 -43.17526,0.0519 -11.66229,19.05094 -34.19282,-0.0519 -9.87572,14.48286 -40.34653,0.98629 v -4.10089 l 38.16296,-0.83055 9.87572,-14.53478 34.09356,-0.0519 11.8608,-18.99902 h 43.12563 z"
           id="path9" /></g><path
         d="m -282.9467,-36.187854 v 29.8182005 h -6.2315 V -31.062854 h -12.0554 v 24.6932005 h -6.23158 V -36.187854 Z m 7.6422,29.8182005 V -36.187854 h 11.7642 c 2.2616,0 4.1883,0.432 5.7802,1.2958 1.5919,0.8542 2.8052,2.0432 3.6399,3.5671 0.8445,1.5142 1.2667,3.2614 1.2667,5.2415 0,1.9801 -0.4271,3.7273 -1.2812,5.2415 -0.8542,1.5142 -2.0918,2.6935 -3.7128,3.538 -1.6112,0.8445 -3.5622,1.2667 -5.8529,1.2667 h -7.4983 v -5.0522 h 6.4791 c 1.2133,0 2.213,-0.2087 2.9993,-0.6261 0.7959,-0.4271 1.388,-1.0143 1.7762,-1.7617 0.398,-0.7571 0.597,-1.6258 0.597,-2.6062 0,-0.99 -0.199,-1.8539 -0.597,-2.5916 -0.3882,-0.7474 -0.9803,-1.3249 -1.7762,-1.7326 -0.796,-0.4174 -1.8054,-0.6261 -3.0284,-0.6261 h -4.2515 v 24.6641005 z m 55.5872,-14.9091005 c 0,3.2517 -0.6164,6.018 -1.8491,8.299 -1.223,2.281 -2.8925,4.0233005 -5.0085,5.2269005 -2.1063,1.1939 -4.4747,1.7909 -7.1051,1.7909 -2.6499,0 -5.028,-0.6018 -7.1343,-1.8054 -2.1063,-1.2036 -3.7709,-2.9459005 -4.9939,-5.2269005 -1.223,-2.2811 -1.8345,-5.0425 -1.8345,-8.2845 0,-3.2516 0.6115,-6.018 1.8345,-8.299 1.223,-2.281 2.8876,-4.0185 4.9939,-5.2124 2.1063,-1.2036 4.4844,-1.8054 7.1343,-1.8054 2.6304,0 4.9988,0.6018 7.1051,1.8054 2.116,1.1939 3.7855,2.9314 5.0085,5.2124 1.2327,2.281 1.8491,5.0474 1.8491,8.299 z m -6.3917,0 c 0,-2.1063 -0.3155,-3.8826 -0.9464,-5.3288 -0.6212,-1.4463 -1.4996,-2.5431 -2.6353,-3.2905 -1.1356,-0.7474 -2.4654,-1.1211 -3.9893,-1.1211 -1.5239,0 -2.8537,0.3737 -3.9894,1.1211 -1.1356,0.7474 -2.0189,1.8442 -2.6498,3.2905 -0.6212,1.4462 -0.9319,3.2225 -0.9319,5.3288 0,2.1063 0.3107,3.8826 0.9319,5.3288 0.6309,1.4463 1.5142,2.5431 2.6498,3.2905 1.1357,0.7474 2.4655,1.1211 3.9894,1.1211 1.5239,0 2.8537,-0.3737 3.9893,-1.1211 1.1357,-0.7474 2.0141,-1.8442 2.6353,-3.2905 0.6309,-1.4462 0.9464,-3.2225 0.9464,-5.3288 z m 24.4953,-11.706 h 6.668 c 2.388,0 4.504,0.5048 6.348,1.5142 1.854,1.0095 3.305,2.4315 4.353,4.266 1.058,1.8248 1.587,3.97 1.587,6.4354 0,2.3878 -0.529,4.4698 -1.587,6.2461 -1.048,1.7763 -2.499,3.1594 -4.353,4.1495 -1.844,0.9803005 -3.96,1.4705005 -6.348,1.4705005 h -6.668 c -2.398,0 -4.523,-0.4853 -6.377,-1.4559005 -1.854,-0.9804 -3.31,-2.3587 -4.368,-4.135 -1.049,-1.7763 -1.573,-3.8729 -1.573,-6.2898 0,-2.4654 0.529,-4.6105 1.587,-6.4353 1.068,-1.8346 2.529,-3.2517 4.383,-4.2515 1.854,-1.0094 3.97,-1.5142 6.348,-1.5142 z m 0,5.2706 c -1.282,0 -2.412,0.2573 -3.393,0.7717 -0.97,0.5047 -1.727,1.2715 -2.271,2.3004 -0.544,1.0289 -0.815,2.315 -0.815,3.8583 0,1.4754 0.276,2.7033 0.83,3.6836 0.563,0.9804 1.329,1.7132 2.3,2.1985 0.971,0.4854 2.087,0.728 3.349,0.728 h 6.712 c 1.271,0 2.383,-0.2475 3.334,-0.7425 0.961,-0.495 1.703,-1.2327 2.228,-2.2131 0.533,-0.9803 0.8,-2.1936 0.8,-3.6399 0,-1.5433 -0.267,-2.8294 -0.8,-3.8583 -0.525,-1.0289 -1.267,-1.8006 -2.228,-2.315 -0.951,-0.5144 -2.063,-0.7717 -3.334,-0.7717 z m 6.319,-8.9978 v 31.5653005 h -5.984 V -36.711954 Z m 18.92199,0.5241 h 6.29 v 18.7529 h 0.247 l 12.886,-18.7529 h 5.518 v 29.8182005 h -6.305 V -25.137054 h -0.218 l -12.958,18.7674005 h -5.46 z"
         fill="#ffffff"
         id="path6-5" /><path
         d="m -307.04224,-45.369654 v -32.7273 h 12.91194 c 2.4822,0 4.5969,0.4741 6.3441,1.4223 1.7472,0.9375 3.0788,2.2425 3.995,3.9151 0.9269,1.6619 1.3903,3.5795 1.3903,5.7528 0,2.1733 -0.4688,4.0909 -1.4063,5.7529 -0.9375,1.6619 -2.2958,2.9563 -4.0749,3.8831 -1.7684,0.9269 -3.9098,1.3903 -6.424,1.3903 h -8.2297 v -5.5451 h 7.1111 c 1.3317,0 2.429,-0.229 3.2919,-0.6871 0.8736,-0.4688 1.5234,-1.1133 1.9496,-1.9336 0.4368,-0.831 0.6552,-1.7845 0.6552,-2.8605 0,-1.0866 -0.2184,-2.0348 -0.6552,-2.8444 -0.4262,-0.8203 -1.076,-1.4542 -1.9496,-1.9017 -0.8736,-0.4581 -1.9815,-0.6871 -3.3239,-0.6871 h -4.6662 v 27.0703 z m 29.13574,0 v -32.7273 h 22.0526 v 5.7049 h -15.1332 v 7.7983 h 13.9986 v 5.7049 h -13.9986 v 7.8143 h 15.1971 v 5.7049 z m 27.5537,-32.7273 h 6.9034 v 20.5824 h 0.2717 l 14.1424,-20.5824 h 6.0565 v 32.7273 h -6.9194 v -20.5984 h -0.2397 l -14.2223,20.5984 h -5.9926 z m 16.875,-8.56532 h 4.7461 c -0.0106,1.93892 -0.7298,3.49962 -2.1573,4.68222 -1.4169,1.1825 -3.3345,1.7738 -5.7528,1.7738 -2.429,0 -4.352,-0.5913 -5.7689,-1.7738 -1.4169,-1.1826 -2.1253,-2.7433 -2.1253,-4.68222 h 4.7141 c -0.0106,0.73509 0.2237,1.3956 0.7031,1.98154 0.4901,0.58594 1.3157,0.87891 2.477,0.87891 1.1292,0 1.9389,-0.28765 2.4289,-0.86293 0.4901,-0.57529 0.7351,-1.24112 0.7351,-1.99752 z m 14.9694,14.27022 v -5.7049 h 26.8787 v 5.7049 h -10.02 v 27.0224 h -6.839 v -27.0224 z m 31.3047,-5.7049 h 6.90399 v 20.5824 h 0.271 l 14.143,-20.5824 h 6.056 v 32.7273 h -6.919 v -20.5984 h -0.24 l -14.222,20.5984 h -5.99299 z m 33.09099,32.7273 v -32.7273 h 6.92 v 13.5032 h 14.046 v -13.5032 h 6.903 v 32.7273 h -6.903 v -13.5192 h -14.046 v 13.5192 z m 55.291013,-32.7273 v 5.7049 H -113.6187 v 27.0224 h -6.92 v -32.7273 z"
         fill="#ffffff"
         id="path7-2" /><path
         d="m -103.36762,-45.378714 2.85763,11.12633 11.548547,0.0764 -9.116174,7.78018 3.165904,11.12633 -10.249857,-6.06475 -11.72469,6.05493 4.57872,-11.62428 -7.39353,-7.25092 10.72381,-0.24698 z"
         fill="#fec928"
         id="path8-2"
         sodipodi:nodetypes="ccccccccccc" /><path
         style="fill:#fecb28;fill-opacity:1;stroke-width:0.151647"
         d="m -116.55354,-15.897494 c 0.0709,-0.19193 1.07013,-2.73649 2.22045,-5.65459 1.15033,-2.91809 2.0915,-5.33132 2.0915,-5.36272 0,-0.0314 -1.63824,-1.65699 -3.64054,-3.61242 l -3.64053,-3.55533 5.30409,-0.12451 c 2.91726,-0.0685 5.31297,-0.13827 5.32382,-0.15509 0.0108,-0.0168 1.25332,-2.45315 2.76106,-5.41405 l 2.74135,-5.38347 1.40461,5.46101 1.40461,5.46102 5.69485,0.0775 5.694851,0.0776 -4.357838,3.72232 c -2.396813,2.04727 -4.41688,3.76366 -4.48903,3.81418 -0.0722,0.0505 0.56316,2.5282 1.411827,5.50593 0.848666,2.97773 1.524551,5.43785 1.501971,5.46693 -0.02258,0.0291 -2.283468,-1.27487 -5.024191,-2.89768 l -4.98314,-2.95057 -5.72326,2.93646 c -3.1478,1.61505 -5.74625,2.93646 -5.77434,2.93646 -0.0281,0 0.007,-0.15704 0.0779,-0.34897 z"
         id="path2" /><path
         style="fill:#fecb28;fill-opacity:1;stroke-width:0.151647"
         d="m -116.40634,-16.285234 c 0.15354,-0.40519 1.15342,-2.95451 2.22196,-5.66516 1.06853,-2.71065 1.94279,-4.94726 1.94279,-4.97024 0,-0.023 -1.64047,-1.64382 -3.64548,-3.60186 l -3.64547,-3.56006 3.68254,-0.0947 c 2.0254,-0.0521 4.4165,-0.1065 5.31357,-0.12094 l 1.63102,-0.0263 2.74308,-5.40909 c 1.5087,-2.97501 2.77181,-5.32846 2.80693,-5.22989 0.0351,0.0986 0.67493,2.55218 1.42183,5.45248 l 1.35798,5.27328 5.69341,0.0776 5.693411,0.0776 -4.399053,3.75869 c -2.419477,2.06727 -4.430185,3.81211 -4.468255,3.87741 -0.0381,0.0653 0.61491,2.52659 1.451047,5.46955 0.836134,2.94295 1.501273,5.37499 1.478084,5.40453 -0.02317,0.0295 -2.285851,-1.27186 -5.028154,-2.89199 l -4.98599,-2.94568 -5.70767,2.93076 c -3.13923,1.61191 -5.73673,2.93075 -5.77222,2.93075 -0.0355,0 0.0611,-0.33152 0.21464,-0.73671 z"
         id="path3" /><path
         style="fill:#fecb28;fill-opacity:1;stroke-width:0.151647"
         d="m -116.40628,-16.285234 c 0.15359,-0.40519 1.15773,-2.9701 2.23145,-5.69979 l 1.9522,-4.96309 -0.738,-0.69793 c -0.4059,-0.38387 -2.04917,-1.98912 -3.6517,-3.56722 l -2.9137,-2.86929 3.60515,-0.095 c 1.98283,-0.0522 4.37247,-0.10667 5.31031,-0.12094 l 1.70516,-0.0259 2.74308,-5.40909 c 1.5087,-2.975 2.77299,-5.32845 2.80955,-5.22989 0.0365,0.0986 0.67692,2.55218 1.42304,5.45248 l 1.35658,5.27328 5.69415,0.0776 5.694151,0.0776 -4.426735,3.78328 -4.426733,3.78328 0.089,0.55942 c 0.049,0.30768 0.71489,2.75791 1.479877,5.44496 0.764989,2.68704 1.370067,4.91017 1.34462,4.94028 -0.04109,0.0486 -2.315047,-1.27237 -8.19013,-4.75782 l -1.82329,-1.08168 -5.69417,2.93115 c -3.13181,1.61213 -5.72994,2.93115 -5.77364,2.93115 -0.0437,0 0.0462,-0.33151 0.19979,-0.7367 z"
         id="path4" /></g></g></svg>
